<?xml version="1.0" standalone="no"?>
<!DOCTYPE svg PUBLIC "-//W3C//DTD SVG 20010904//EN"
 "http://www.w3.org/TR/2001/REC-SVG-20010904/DTD/svg10.dtd">
<svg version="1.0" xmlns="http://www.w3.org/2000/svg"
 width="96.000000pt" height="96.000000pt" viewBox="0 0 96.000000 96.000000"
 preserveAspectRatio="xMidYMid meet">

<g transform="translate(0.000000,96.000000) scale(0.100000,-0.100000)"
fill="#000000" stroke="none">
<path d="M537 798 c-15 -5 -25 -13 -22 -18 3 -4 -3 -6 -14 -3 -25 6 -87 -49
-94 -85 -8 -40 17 -92 44 -92 13 0 33 -9 45 -21 13 -13 43 -23 78 -28 31 -4
65 -16 76 -26 19 -18 20 -18 20 1 0 11 14 26 33 35 19 10 31 23 31 33 -1 10 1
15 4 12 11 -12 32 18 32 46 0 59 -62 135 -119 143 -76 12 -87 12 -114 3z m91
-31 c6 3 12 -1 12 -8 0 -8 5 -6 13 5 12 16 13 16 14 -3 1 -16 -3 -19 -24 -15
-15 3 -31 8 -36 11 -5 3 -14 -1 -19 -8 -8 -11 -9 -10 -4 4 3 11 0 17 -9 17 -8
0 -15 5 -15 10 0 6 11 5 28 -3 15 -8 33 -12 40 -10z m19 17 c-3 -3 -12 -4 -19
-1 -8 3 -5 6 6 6 11 1 17 -2 13 -5z m58 -24 c3 -5 1 -10 -4 -10 -6 0 -11 5
-11 10 0 6 2 10 4 10 3 0 8 -4 11 -10z m-192 -14 c6 -15 -1 -26 -14 -26 -5 0
-5 8 -2 17 5 12 2 15 -10 10 -9 -3 -17 -2 -17 3 0 15 37 12 43 -4z m-39 -28
c-2 -3 -13 -4 -24 -1 -11 3 -20 0 -20 -6 0 -5 6 -9 13 -7 6 1 9 1 6 -1 -4 -2
-5 -13 -2 -23 4 -16 0 -20 -18 -20 -22 1 -22 2 -6 11 14 8 16 14 6 25 -17 21
17 59 36 41 7 -7 11 -15 9 -19z m89 7 c-3 -10 1 -15 13 -15 18 -1 18 -1 -1
-12 -11 -6 -23 -16 -27 -22 -4 -6 -10 -7 -14 -3 -4 4 1 14 12 23 13 11 14 14
4 11 -10 -3 -16 2 -17 14 -1 12 3 16 14 12 12 -5 14 -3 8 7 -5 8 -4 11 3 6 6
-4 9 -13 5 -21z m171 0 c3 -8 1 -15 -4 -15 -6 0 -10 4 -10 10 0 5 -6 7 -14 4
-8 -3 -16 -2 -19 3 -3 5 5 10 18 11 13 1 26 -5 29 -13z m-96 -2 c-10 -2 -15
-10 -11 -19 3 -8 0 -14 -6 -14 -12 0 -15 23 -4 33 3 4 13 6 22 6 13 -1 13 -2
-1 -6z m-118 -24 c0 -6 -7 -9 -15 -6 -19 8 -31 -11 -16 -26 8 -8 11 -8 11 1 0
7 4 12 9 12 6 0 6 -12 1 -30 -9 -31 -7 -34 23 -31 21 3 22 -12 1 -30 -14 -11
-18 -10 -30 6 -8 10 -12 27 -9 36 4 11 -2 23 -15 32 -26 18 -16 47 16 47 13 0
24 -5 24 -11z m140 1 c0 -5 -4 -10 -10 -10 -5 0 -10 5 -10 10 0 6 5 10 10 10
6 0 10 -4 10 -10z m55 0 c8 -13 -5 -13 -25 0 -13 8 -13 10 2 10 9 0 20 -4 23
-10z m-96 -31 c-10 -6 -5 -16 21 -39 32 -29 35 -30 38 -11 2 13 8 18 18 14 13
-5 13 -8 -1 -24 -16 -16 -16 -17 4 -12 21 5 29 -11 11 -22 -5 -3 -10 -2 -10 4
0 6 -6 8 -14 5 -7 -3 -16 2 -19 10 -4 9 -14 16 -24 15 -11 0 -13 -3 -5 -6 6
-2 12 -9 12 -15 0 -6 -7 -8 -15 -5 -8 4 -17 2 -20 -3 -3 -4 1 -11 7 -13 9 -4
9 -6 1 -6 -18 -1 -43 28 -37 44 4 8 11 15 16 15 6 0 6 -6 -1 -14 -8 -9 -8 -16
-2 -20 6 -4 15 2 20 13 8 14 7 22 -5 32 -8 7 -19 20 -24 29 -8 14 -5 18 16 18
18 0 22 -3 13 -9z m101 -10 c0 -6 9 -9 20 -6 24 6 27 -8 4 -17 -8 -3 -22 0
-30 8 -16 17 -18 26 -4 26 6 0 10 -5 10 -11z m-250 -21 c0 -19 -2 -20 -10 -8
-13 19 -13 30 0 30 6 0 10 -10 10 -22z m87 16 c-3 -3 -12 -4 -19 -1 -8 3 -5 6
6 6 11 1 17 -2 13 -5z m-112 -24 c3 -5 1 -10 -4 -10 -6 0 -11 5 -11 10 0 6 2
10 4 10 3 0 8 -4 11 -10z m135 -5 c0 -8 -2 -15 -4 -15 -2 0 -6 7 -10 15 -3 8
-1 15 4 15 6 0 10 -7 10 -15z m100 -59 c0 -2 -9 -6 -20 -9 -11 -3 -18 -1 -14
4 5 9 34 13 34 5z"/>
<path d="M116 491 c-19 -21 -21 -52 -4 -69 14 -14 68 -16 68 -2 0 6 -8 10 -19
10 -23 0 -42 22 -33 37 9 14 53 20 70 10 6 -5 12 -21 12 -38 0 -19 5 -29 15
-29 9 0 15 9 15 23 0 13 7 32 15 43 13 18 14 16 15 -23 0 -31 4 -43 15 -43 9
0 15 9 16 23 l0 22 16 -22 c16 -23 73 -33 73 -13 0 6 9 10 20 10 11 0 20 -4
20 -10 0 -5 13 -10 29 -10 20 0 30 6 34 20 3 11 12 20 21 20 10 0 16 8 16 21
0 12 5 19 12 17 13 -5 15 -9 17 -53 2 -39 21 -30 21 10 0 19 5 35 10 35 6 0
10 7 10 15 0 18 -50 21 -67 4 -8 -8 -13 -8 -17 0 -4 6 -18 11 -32 11 -22 0
-24 -4 -25 -47 l0 -48 -18 45 c-10 25 -24 45 -31 45 -8 0 -20 -20 -29 -45
l-16 -45 -3 48 c-3 51 -22 61 -32 17 l-5 -23 -12 26 c-14 29 -47 33 -75 9 -15
-13 -18 -13 -23 0 -9 23 -79 22 -99 -1z m389 -11 c3 -5 1 -10 -4 -10 -6 0 -11
5 -11 10 0 6 2 10 4 10 3 0 8 -4 11 -10z"/>
<path d="M610 460 c0 -27 5 -50 10 -50 6 0 10 23 10 50 0 28 -4 50 -10 50 -5
0 -10 -22 -10 -50z"/>
<path d="M659 491 c-20 -16 -22 -23 -14 -47 8 -23 17 -30 43 -32 36 -4 45 15
10 20 -15 2 -24 11 -26 26 -3 18 1 22 23 22 17 0 25 5 23 13 -7 20 -33 19 -59
-2z"/>
<path d="M747 503 c-13 -12 -7 -44 8 -49 20 -8 19 -26 -1 -22 -10 2 -19 -3
-21 -9 -3 -9 6 -13 26 -13 41 0 53 26 23 50 l-21 18 20 5 c12 3 18 10 14 16
-7 12 -38 15 -48 4z"/>
<path d="M112 358 c-30 -30 0 -92 41 -86 30 4 34 28 4 28 -28 0 -41 22 -24 39
6 6 19 11 29 11 10 0 18 5 18 10 0 14 -54 12 -68 -2z"/>
<path d="M190 319 c0 -49 1 -50 28 -47 26 3 35 23 10 23 -8 0 -14 16 -16 38
-5 55 -22 45 -22 -14z"/>
<path d="M250 331 c0 -46 19 -66 55 -57 22 6 25 12 25 51 0 51 -17 61 -22 13
-4 -46 -28 -49 -28 -4 0 25 -4 36 -15 36 -11 0 -15 -11 -15 -39z"/>
<path d="M340 320 c0 -45 2 -50 23 -50 39 0 48 13 41 58 -6 38 -9 42 -35 42
-28 0 -29 -2 -29 -50z m50 -14 c0 -3 -4 -8 -10 -11 -5 -3 -10 -1 -10 4 0 6 5
11 10 11 6 0 10 -2 10 -4z"/>
<path d="M152 220 c0 -14 2 -19 5 -12 2 6 2 18 0 25 -3 6 -5 1 -5 -13z"/>
<path d="M220 232 c-26 -4 -52 -21 -35 -23 6 0 18 -2 28 -4 9 -2 17 1 17 6 0
5 5 9 11 9 5 0 8 -4 5 -9 -3 -5 5 -8 17 -8 16 0 23 6 24 19 2 15 -1 17 -11 9
-7 -6 -17 -7 -22 -3 -5 5 -20 6 -34 4z"/>
<path d="M300 225 c-8 -10 -8 -15 1 -20 6 -4 15 -1 20 6 6 10 9 11 9 2 0 -7 5
-13 10 -13 6 0 10 6 10 14 0 19 -37 27 -50 11z"/>
<path d="M111 214 c0 -11 3 -14 6 -6 3 7 2 16 -1 19 -3 4 -6 -2 -5 -13z"/>
<path d="M131 214 c0 -11 3 -14 6 -6 3 7 2 16 -1 19 -3 4 -6 -2 -5 -13z"/>
</g>
</svg>
